name rise35.5848peak51.9257fall54.8793.mot
datacolumns 19
datarows 29
range 4.52997700000000 4.57664700000000
endheader
time	ground_force1_vx	ground_force1_vy	ground_force1_vz	ground_force1_px	ground_force1_py	ground_force1_pz	ground_force2_vx	ground_force2_vy	ground_force2_vz	ground_force2_px	ground_force2_py	ground_force2_pz	ground_torque1_x	ground_torque1_y	ground_torque1_z	ground_torque2_x	ground_torque2_y	ground_torque2_z	
4.52997700000000	-36.10149700000000	805.34332600000005	55.21802800000000	0.13467000000000	0.00000000000000	0.11353000000000	-8.96913700000000	49.72747600000000	5.13776200000000	0.35206300000000	0.00000000000000	-0.06792600000000	0.00000000000000	23.92721500000000	0.00000000000000	0.00000000000000	2.61372800000000	0.00000000000000	
4.53164200000000	-36.66079300000000	803.59837500000003	55.05383700000000	0.13392400000000	0.00000000000000	0.11342600000000	-9.64347900000000	55.61796600000000	5.57825600000000	0.35585100000000	0.00000000000000	-0.06817900000000	0.00000000000000	23.86906200000000	0.00000000000000	0.00000000000000	2.87239100000000	0.00000000000000	
4.53332700000000	-37.23461000000000	801.71139400000004	54.86222500000000	0.13319400000000	0.00000000000000	0.11331800000000	-10.19229300000000	61.32380000000000	5.95866200000000	0.35945600000000	0.00000000000000	-0.06840900000000	0.00000000000000	23.80946600000000	0.00000000000000	0.00000000000000	3.10604500000000	0.00000000000000	
4.53498000000000	-37.82309300000000	799.68038300000001	54.64284000000000	0.13247900000000	0.00000000000000	0.11320500000000	-10.60914600000000	66.80844800000000	6.27484500000000	0.36288700000000	0.00000000000000	-0.06862000000000	0.00000000000000	23.74851500000000	0.00000000000000	0.00000000000000	3.31181900000000	0.00000000000000	
4.53665700000000	-38.42633300000000	797.50342899999998	54.39537700000000	0.13178000000000	0.00000000000000	0.11308700000000	-10.89388800000000	72.06012699999999	6.52597700000000	0.36615300000000	0.00000000000000	-0.06881600000000	0.00000000000000	23.68629100000000	0.00000000000000	0.00000000000000	3.48848400000000	0.00000000000000	
4.53831300000000	-39.04436500000000	795.17870400000004	54.11957700000000	0.13109600000000	0.00000000000000	0.11296500000000	-11.05173100000000	77.08910299999999	6.71407600000000	0.36926000000000	0.00000000000000	-0.06900000000000	0.00000000000000	23.62286200000000	0.00000000000000	0.00000000000000	3.63628100000000	0.00000000000000	
4.53997600000000	-39.67716300000000	792.70446700000002	53.81523200000000	0.13042700000000	0.00000000000000	0.11283900000000	-11.09205000000000	81.92365400000000	6.84340100000000	0.37221400000000	0.00000000000000	-0.06917300000000	0.00000000000000	23.55828800000000	0.00000000000000	0.00000000000000	3.75665000000000	0.00000000000000	
4.54164200000000	-40.32464100000000	790.07906600000001	53.48218400000000	0.12977200000000	0.00000000000000	0.11270700000000	-11.02705000000000	86.60525300000000	6.91976000000000	0.37502100000000	0.00000000000000	-0.06933900000000	0.00000000000000	23.49261600000000	0.00000000000000	0.00000000000000	3.85191200000000	0.00000000000000	
4.54331100000000	-40.98664200000000	787.30093599999998	53.12032800000000	0.12913100000000	0.00000000000000	0.11257100000000	-10.87044200000000	91.18351199999999	6.94981400000000	0.37768300000000	0.00000000000000	-0.06949900000000	0.00000000000000	23.42588200000000	0.00000000000000	0.00000000000000	3.92492800000000	0.00000000000000	
4.54497600000000	-41.66294500000000	784.36860400000000	52.72960800000000	0.12850200000000	0.00000000000000	0.11243100000000	-10.63621800000000	95.71133399999999	6.94043500000000	0.38020700000000	0.00000000000000	-0.06965500000000	0.00000000000000	23.35811000000000	0.00000000000000	0.00000000000000	3.97877000000000	0.00000000000000	
4.54666900000000	-42.35325300000000	781.28068399999995	52.31002500000000	0.12788600000000	0.00000000000000	0.11228600000000	-10.33762700000000	100.24062600000001	6.89815000000000	0.38259300000000	0.00000000000000	-0.06980700000000	0.00000000000000	23.28931000000000	0.00000000000000	0.00000000000000	4.01643400000000	0.00000000000000	
4.54831300000000	-43.05719600000000	778.03588200000002	51.86163100000000	0.12728200000000	0.00000000000000	0.11213600000000	-9.98637300000000	104.81881900000000	6.82871900000000	0.38484600000000	0.00000000000000	-0.06995800000000	0.00000000000000	23.21948000000000	0.00000000000000	0.00000000000000	4.04060000000000	0.00000000000000	
4.54997600000000	-43.77432400000000	774.63299500000005	51.38453300000000	0.12668800000000	0.00000000000000	0.11198300000000	-9.59208200000000	109.48630799999999	6.73683300000000	0.38696900000000	0.00000000000000	-0.07010700000000	0.00000000000000	23.14860700000000	0.00000000000000	0.00000000000000	4.05346500000000	0.00000000000000	
4.55164600000000	-44.50411100000000	771.07091500000001	50.87889500000000	0.12610400000000	0.00000000000000	0.11182400000000	-9.16201700000000	114.27485900000001	6.62595400000000	0.38896300000000	0.00000000000000	-0.07025600000000	0.00000000000000	23.07666300000000	0.00000000000000	0.00000000000000	4.05663700000000	0.00000000000000	
4.55332000000000	-45.24594300000000	767.34862399999997	50.34493500000000	0.12552800000000	0.00000000000000	0.11166200000000	-8.70102000000000	119.20692699999999	6.49827000000000	0.39083000000000	0.00000000000000	-0.07040600000000	0.00000000000000	23.00360700000000	0.00000000000000	0.00000000000000	4.05109800000000	0.00000000000000	
4.55498000000000	-45.99912700000000	763.46519999999998	49.78292600000000	0.12496000000000	0.00000000000000	0.11149500000000	-8.21165300000000	124.29576000000000	6.35475900000000	0.39257400000000	0.00000000000000	-0.07055700000000	0.00000000000000	22.92938800000000	0.00000000000000	0.00000000000000	4.03721700000000	0.00000000000000	
4.55664100000000	-46.76288100000000	759.41981799999996	49.19319800000000	0.12439900000000	0.00000000000000	0.11132500000000	-7.69447700000000	129.54615699999999	6.19532900000000	0.39419700000000	0.00000000000000	-0.07071000000000	0.00000000000000	22.85393900000000	0.00000000000000	0.00000000000000	4.01481400000000	0.00000000000000	
4.55831500000000	-47.53633400000000	755.21174900000005	48.57613700000000	0.12384300000000	0.00000000000000	0.11115000000000	-7.14843800000000	134.95568399999999	6.01901300000000	0.39569900000000	0.00000000000000	-0.07086500000000	0.00000000000000	22.77718400000000	0.00000000000000	0.00000000000000	3.98325200000000	0.00000000000000	
4.55998300000000	-48.31852900000000	750.84036300000002	47.93218500000000	0.12329000000000	0.00000000000000	0.11097200000000	-6.57129900000000	140.51618600000000	5.82419400000000	0.39708400000000	0.00000000000000	-0.07102300000000	0.00000000000000	22.69903400000000	0.00000000000000	0.00000000000000	3.94155300000000	0.00000000000000	
4.56164000000000	-49.10841800000000	746.30512999999996	47.26183900000000	0.12274100000000	0.00000000000000	0.11079000000000	-5.96008800000000	146.21541500000001	5.60884000000000	0.39835200000000	0.00000000000000	-0.07118300000000	0.00000000000000	22.61938700000000	0.00000000000000	0.00000000000000	3.88851600000000	0.00000000000000	
4.56331200000000	-49.90486200000000	741.60562100000004	46.56565000000000	0.12219200000000	0.00000000000000	0.11060400000000	-5.31151400000000	152.03864200000001	5.37072700000000	0.39950700000000	0.00000000000000	-0.07134600000000	0.00000000000000	22.53813200000000	0.00000000000000	0.00000000000000	3.82283700000000	0.00000000000000	
4.56497800000000	-50.70663600000000	736.74151300000005	45.84422700000000	0.12164400000000	0.00000000000000	0.11041500000000	-4.62233900000000	157.97013699999999	5.10763600000000	0.40055100000000	0.00000000000000	-0.07151300000000	0.00000000000000	22.45514800000000	0.00000000000000	0.00000000000000	3.74321800000000	0.00000000000000	
4.56664700000000	-51.51242000000000	731.71258899999998	45.09823000000000	0.12109400000000	0.00000000000000	0.11022200000000	-3.88967600000000	163.99442099999999	4.81751600000000	0.40148400000000	0.00000000000000	-0.07168300000000	0.00000000000000	22.37030200000000	0.00000000000000	0.00000000000000	3.64845200000000	0.00000000000000	
4.56831000000000	-52.32080900000000	726.51874099999998	44.32837400000000	0.12054200000000	0.00000000000000	0.11002700000000	-3.11121300000000	170.09725599999999	4.49861100000000	0.40231000000000	0.00000000000000	-0.07185600000000	0.00000000000000	22.28345400000000	0.00000000000000	0.00000000000000	3.53749700000000	0.00000000000000	
4.56999100000000	-53.13031000000000	721.15997300000004	43.53542400000000	0.11998500000000	0.00000000000000	0.10982800000000	-2.28535600000000	176.26634999999999	4.14953700000000	0.40303100000000	0.00000000000000	-0.07203200000000	0.00000000000000	22.19445300000000	0.00000000000000	0.00000000000000	3.40951900000000	0.00000000000000	
4.57164500000000	-53.93934400000000	715.63640799999996	42.72019800000000	0.11942300000000	0.00000000000000	0.10962700000000	-1.41129700000000	182.49176499999999	3.76932600000000	0.40364800000000	0.00000000000000	-0.07221100000000	0.00000000000000	22.10314300000000	0.00000000000000	0.00000000000000	3.26392300000000	0.00000000000000	
4.57330900000000	-54.74624800000000	709.94828900000005	41.88356200000000	0.11885400000000	0.00000000000000	0.10942300000000	-0.48901900000000	188.76608200000001	3.35743900000000	0.40416500000000	0.00000000000000	-0.07239400000000	0.00000000000000	22.00935900000000	0.00000000000000	0.00000000000000	3.10035600000000	0.00000000000000	
4.57497700000000	-55.54928000000000	704.09598400000004	41.02643100000000	0.11827700000000	0.00000000000000	0.10921600000000	0.48075200000000	195.08433400000001	2.91373700000000	0.40458300000000	0.00000000000000	-0.07258000000000	0.00000000000000	21.91292800000000	0.00000000000000	0.00000000000000	2.91869800000000	0.00000000000000	
4.57664700000000	-56.34661900000000	698.07999700000005	40.14976600000000	0.11768900000000	0.00000000000000	0.10900700000000	1.49663600000000	201.44378200000000	2.43845100000000	0.40490500000000	0.00000000000000	-0.07276800000000	0.00000000000000	21.81367600000000	0.00000000000000	0.00000000000000	2.71904500000000	0.00000000000000	
